<svg width="27" height="20" viewBox="0 0 27 20" xmlns="http://www.w3.org/2000/svg"><title>Mail Icon</title><path d="M27 18.167c0 1-.81 1.833-1.713 1.833H1.713C.81 20 0 19.167 0 18.167V1.9C0 .933.747.133 1.65.1l.032-.1h23.574l.031.1h.405-.405C26.221.1 27 .9 27 1.9v16.267zm-2.087-2.6V4.433L18.093 10l6.82 5.567zm0-13.334H2.087C5.886 5.3 9.685 8.367 13.484 11.467c3.8-3.1 7.599-6.167 11.43-9.234zm0 15.534l-8.221-6.634-2.18 1.8h-2.086l-2.15-1.766-8.19 6.6h22.827zM8.875 10L2.087 4.433v11.134L8.875 10z" fill="#423D32" fill-rule="evenodd"/></svg>