<svg xmlns="http://www.w3.org/2000/svg" width="24" height="28" viewBox="0 0 24 28"><title>P</title><path d="M.477.698h13.457c3.04 0 5.36.69 6.96 2.068s2.4 3.18 2.4 5.408-.74 3.926-2.216 5.095c-2.03 1.61-4.535 2.416-7.513 2.416H8.69v9.323c0 .54.13.93.39 1.162.343.295.805.443 1.383.443h3.102V28H.477v-1.384H3.21c.54 0 .937-.108 1.19-.324.25-.215.378-.507.378-.876V3.652c0-.554-.16-.954-.48-1.2-.32-.246-.923-.37-1.81-.37H.48V.7zM8.69 14.34h3.712c2.35 0 4.045-.49 5.085-1.468s1.56-2.593 1.56-4.845c0-1.575-.234-2.784-.7-3.627a4.3 4.3 0 0 0-2.06-1.874c-.904-.406-2.39-.61-4.458-.61-1.368 0-2.23.13-2.595.39-.363.257-.545.706-.545 1.346V14.34z" fill="#94D600" fill-rule="evenodd"/></svg>