<svg width="16" height="20" viewBox="0 0 16 20" xmlns="http://www.w3.org/2000/svg"><title>noun_53441</title><path d="M7.836 15.787c-3.17-.043-5.728-2.653-5.728-5.867 0-1.427.504-2.734 1.341-3.751L1.916 4.944A7.862 7.862 0 0 0 .155 9.92c0 4.304 3.431 7.798 7.681 7.841V20l3.05-3.081-3.05-3.082v1.95zm.081-13.711l-.08.001V0l-3.05 3.082 3.05 3.08v-2.11l.08-.002c3.208 0 5.808 2.628 5.808 5.87 0 1.47-.535 2.813-1.418 3.843l1.463 1.307a7.862 7.862 0 0 0 1.909-5.15c0-4.332-3.476-7.844-7.762-7.844z" fill="#515356" fill-rule="evenodd"/></svg>